<?xml version="1.0" encoding="UTF-8"?>
<svg version="1.1" viewBox="0 0 1024 1024" width="1024" height="1024" xmlns="http://www.w3.org/2000/svg">
<path transform="translate(0)" d="m0 0h1024v1024h-1024z" fill="transparent"/>
<path transform="translate(567,294)" fill="#1E40AF" d="m0 0h28l17 3 18 6 19 10 16 12 16 16 7 10 8 13 8 18 4 15 2 13v15l-2 15-8 24-9 16-9 12-7 7-5 2-7-23-7-19-7-14-9-13-7-8-13-9-15-6-14-2-20 1-18 4-16 6-16 8-10 6-14 10-11 9-10 9-10 11-11 17-7 16-2 13 1 14 6 12 5 5 7 6 15 7 17 4 8 1h37l27-4 24-6 25-9 16-8 16-9 16-12 14-12 7-7 11-16 7-16 4-15 2-12v-40l3 4 7 19 7 17 6 16 13 34 25 65 8 20 6 16 13 34v3h-23l-19-3-18-6-16-9-14-12-9-10-9-14-9-21-8-25-1-5-10 8-7 7-11 9-13 11-19 14-11 7-18 11-18 10-23 12-33 15-19 8-25 9-30 10-30 8-33 7-22 3-12 1h-29l-16-3-11-4-8-6-5-6-2-6v-11l4-15 8-18 12-23 10-17 25-40 30-45 11-16 13-18 11-16 12-16 10-14 10-13 9-11 9-10 21-21 11-9 15-11 13-8 16-8 11-5 24-7z"/>
</svg>
